# xmcd CD database file
#
# Track frame offsets:
#	150
#	1830
#	16402
#	33195
#	45745
#	59705
#	78955
#	99585
#	102765
#	124679
#
# Disc length: 1668 seconds
#
# Revision: 0
# Processed by: cddbd v1.5.1PL0 Copyright (c) Steve Scherf et al.
# Submitted via: CDex 1.51
#
DISCID=7106820a
DTITLE=analers - spamming
DYEAR=2000
DGENRE=Rock
TTITLE0=GOLILLA
TTITLE1=Viking SPAM
TTITLE2=プラスチック
TTITLE3=Underground
TTITLE4=USO
TTITLE5=L
TTITLE6=asa
TTITLE7=Sherry
TTITLE8=シェリー
TTITLE9=web　data
EXTD=YEAR: 2000
EXTT0=
EXTT1=
EXTT2=
EXTT3=
EXTT4=
EXTT5=
EXTT6=
EXTT7=
EXTT8=
EXTT9=
PLAYORDER=
